<svg xmlns="http://www.w3.org/2000/svg" viewBox="0 0 20 20" width="20" height="20" role="img" aria-label="Panoply">
  <style>
    :root { color: #fff; }
    @media (prefers-color-scheme: light) { :root { color: #000; } }
    path { fill: currentColor; }
  </style>
  <path fill-rule="evenodd" d="m3.5 2.5v14H2v-14z"/>
  <path fill-rule="evenodd" d="m17.9 2.5v14h-1.5v-14z"/>
  <path fill-rule="evenodd" d="M16.4 1v1.5H3.5V1z"/>
  <path fill-rule="evenodd" d="M7.2 12.9H5.9V14H4.8v1.3h1.1v1.1h1.3v-1.1h1.1V14H7.2z"/>
  <path fill-rule="evenodd" d="M11.5 15.1h1.3v1.3h-1.3z"/>
  <path fill-rule="evenodd" d="M13.1 13.3h1.4v1.4h-1.4z"/>
  <path fill-rule="evenodd" d="M15.1 17.5H4.8v-1H3.5V19h11.6v-1.2h1.3v-1.3h-1.3z"/>
  <path d="M4.8 11.7h10.3V3.8H4.8zm7-5.6h1.3v1.3h-1.3zM8.3 8.9h3.3v1.3H8.3zM6.8 6.1h1.3v1.3H6.8z"/>
</svg>
